<svg xmlns="http://www.w3.org/2000/svg" viewBox="0 0 3600 3600"><defs><style>.cls-1{fill:#D40511;fill-rule:evenodd;}.cls-2{fill:#ffffff;}</style></defs><title>Zasób 2</title><g id="Warstwa_2" data-name="Warstwa 2"><g id="Warstwa_1-2" data-name="Warstwa 1"><polygon class="cls-1" points="0 0 3600 0 3600 3600 0 3600 0 0 0 0"/><path class='cls-2' d="M997,1140.34H2603c89.73,0,163,73.28,163,163v993.3c0,89.73-73.28,163-163,163H997c-89.73,0-163-73.28-163-163v-993.3c0-89.73,73.28-163,163-163Zm1.06,94c249.85,251,478,480.16,714.9,718,50.56,50.56,123.45,50.41,174.16.19,237.59-238.75,466.59-468.77,714.89-718.23ZM2671.73,1297l-507.45,510L2672,2263.61V1303.35l-.29-6.37ZM2098,1873.52l-144.58,145.31c-87.9,86.93-218.92,87.31-306.63-.1l-143.47-144.15L965.7,2358.11a68.44,68.44,0,0,0,31.31,7.58H2603a68.39,68.39,0,0,0,32.9-8.4L2098,1873.52ZM1437,1808,928.27,1296.93l-.29,6.42v962.52L1437,1808Z"/></g></g></svg>