<svg xmlns="http://www.w3.org/2000/svg" viewBox="0 0 3600 3600"><defs><style>.cls-1{fill:#D40511;}.cls-2{fill:#ffffff}.cls-3{fill:#ffffff}.cls-4{fill:#ffffff}</style></defs><title>Zasób 1</title><g id="Warstwa_2" data-name="Warstwa 2"><g id="Warstwa_1-2" data-name="Warstwa 1"><polygon class="cls-1" points="0 0 3600 0 3600 3600 0 3600 0 0 0 0"/><path class="cls-2" d="M1890.39,2210.41c-184.13-110.17-390.63-316.67-500.8-500.8-37.1-62,149.71-159.85,102.25-288.25l-117.76-318.54c-27-73-75.74-133.26-152.67-121.53-1099.12,167.62,1229.68,2496.42,1397.3,1397.3,11.73-76.93-48.53-125.69-121.53-152.67l-318.54-117.76c-128.4-47.46-226.24,139.35-288.25,102.25Z"/><path class='cls-2' d="M2552.34,1727.89a59.92,59.92,0,1,0,119.84,0c0-220.94-89.55-421-234.33-565.74s-344.8-234.33-565.74-234.33a59.92,59.92,0,1,0,0,119.84c187.84,0,357.89,76.14,481,199.24s199.24,293.15,199.24,481Z"/><path class='cls-3' d="M2311.7,1727.89a59.92,59.92,0,0,0,119.84,0c0-154.49-62.61-294.35-163.85-395.58s-241.09-163.85-395.58-163.85a59.92,59.92,0,1,0,0,119.84,439.6,439.6,0,0,1,439.59,439.59Z"/><path class='cls-4' d="M2071.06,1727.89a59.92,59.92,0,0,0,119.84,0,318.75,318.75,0,0,0-318.79-318.79,59.92,59.92,0,1,0,0,119.84,198.95,198.95,0,0,1,199,199Z"/></g></g></svg>